<?xml version="1.0" encoding="utf-8"?>
<!-- Generator: Adobe Illustrator 28.1.0, SVG Export Plug-In . SVG Version: 6.00 Build 0)  -->
<svg version="1.1" id="Layer_1" xmlns="http://www.w3.org/2000/svg" xmlns:xlink="http://www.w3.org/1999/xlink" x="0px" y="0px"
	 viewBox="0 0 315.8 109.5" style="enable-background:new 0 0 315.8 109.5;" xml:space="preserve">
<style type="text/css">
	.st0{fill:#FEFEFE;}
	.st1{fill:#6698CB;}
</style>
<g>
	<path class="st0" d="M81.4,74.9c0.3,2.3-1.2,3.2-3.1,3.9c-5.1,2-10.4,3.6-15.9,4.2c-3.6,0.4-8.2-2.1-9.6-5.5
		c-0.6-1.4-0.2-2.5,1.1-3.3c1.4-0.8,2.9-1.4,4.5-1.6c1.9-0.2,2.7-1.3,2.5-3.1c-0.5-4.7-1-9.3-1.1-14c0-1-0.5-1.4-1.5-1.3
		c-9.9,0.6-19.6,2.4-29,5.8c-4.3,1.5-4.5,2.1-4.4,6.7c0,0.5,0,1,0,1.4c0,0-0.1,0-0.1,0c0.2,2.1,0.4,4.1,0.4,6.2
		c0,2.4,1.2,3.4,3.4,3.2c2.3-0.2,4,0.9,5.5,2.3c2.3,2.2,2,4.5-0.7,6.3c-3.6,2.3-7.7,3-11.8,3.7c-1.9,0.3-3.8,0.7-5.7,0.9
		c-3.7,0.5-6.6-0.9-8.7-3.9c-1.3-1.9-1.1-3.1,0.8-4.4c1.4-1,3-1.6,4.6-2.1c1.2-0.4,1.5-1.1,1.4-2.4c-2-13-2.4-26.1-3.3-39.2
		c-0.3-4.1-0.4-8.3-0.5-12.4C10.4,24,10,22.3,7,22.1c-2.7-0.2-5-1.5-6.4-4c-1.2-2.2-0.7-4,1.5-5.2c1.2-0.7,2.4-1.3,3.7-1.6
		c5.6-1.4,11.3-3,17-3.7c4-0.5,8.4,2.5,8.9,5.9c0.3,2-0.2,3.5-2.2,4.2c-0.5,0.2-0.9,0.4-1.3,0.5c-5.8,2.2-4.7,1.1-4.7,6.8
		c0,6.9,0.2,13.8,0.5,20.8c0.1,3.5,0.6,3.9,4.1,3.1c9.6-2.3,19.2-4.5,29.1-5.3c2.1-0.2,2.8-1.6,2.7-3.5c-0.3-5.6-0.6-11.3-0.8-16.9
		C59,21.3,59,19.7,59,18c0-2-0.8-3-2.9-3.2c-3.6-0.4-6.5-2-7.7-5.8c-0.5-1.8-0.1-3.1,1.6-4c7.3-3.7,15-5.2,23.1-5
		c1.4,0,2.4,0.8,3.1,2c0.5,1,1,2,1.4,3c1.2,2.9,1.1,3.5-1.9,4.7c-4.2,1.7-5.5,4.6-5.1,8.8c0.5,6.2,0.7,12.4,0.9,18.6
		c0.4,9.5,0.7,18.9,1.1,28.4c0.2,3.8,0.2,3.8,4,3.9C78.4,69.6,81.1,72.5,81.4,74.9z"/>
	<path class="st0" d="M150.1,32.6c0.4,3.9-0.7,5.7-4,6.3c-2.3,0.5-3.7,1.7-4.8,3.8c-5.4,10.2-9.5,21-13.9,31.7
		c-2.3,5.6-1.3,11.1-0.7,16.7c0,0.1,0,0.2,0,0.2c0.5,1.4-0.3,3.2,0.9,4.3c1.2,1.1,2.7-0.1,4.1-0.1c2.7,0.1,5.8,2.4,6.4,4.9
		c0.5,1.8-0.9,2.6-2.1,3.3c-4.2,2.5-8.9,3.8-13.7,4.7c-1.8,0.4-3.6,0.6-5.4,0.9c-3.1,0.5-7.9-1.7-9.5-4.4c-0.6-1-0.3-1.8,0.5-2.6
		c1.4-1.5,3.2-2.3,5.2-2.8c2-0.5,2.9-1.5,2.6-3.8c-0.7-4.1-1.1-8.2-1.5-12.3c-0.2-1.9-1.3-3.4-2.4-4.9C106.9,72,101.2,66,96.3,59.5
		c-2.1-2.8-4.1-5.7-6-8.6c-1.8-2.6-4.1-4.1-7.4-4.1c-2,0-4.4-2.5-5.1-5c-0.7-2.5,0.9-3.7,2.6-4.8c3.4-2.1,7.3-2.2,11-2.9
		c1.8-0.3,3.6-0.5,5.5-0.7c3.7-0.5,6.5,1.3,7.1,4.7c0.6,2.9-1.3,5.6-5,6.9c5.8,7.1,11.4,14.1,17,21c1.1,1.4,2.2,1.6,3-0.3
		c3.1-7.1,6.2-14.1,9.3-21.2c0.6-1.4,1-2.5-1.5-2.1c-2.3,0.4-4.8-2.1-5.4-4.9c-0.5-2.4,1.1-3.5,2.9-4.3c6.5-2.9,13.4-4.7,20.5-5.3
		C148.1,27.5,149.8,29.2,150.1,32.6z"/>
	<path class="st0" d="M216,19.6c0.5,1.9,0.4,4-1.3,5.5c-1.1,1-2.4,1.7-3.8,2c-2.8,0.7-4.5,2.5-5.6,5.1
		c-4.9,11.6-10.6,22.8-14.8,34.7c-1.2,3.4-3.4,5-6.8,5.3c-3.5,0.3-5.5-1.7-7.1-4.3c-3-5.3-5.4-11-7.8-16.6
		c-1.9-4.5-3.9-9.1-5.1-13.9c-0.4-1.6-1.2-2.6-3.1-2.7c-2.8-0.1-5-1.3-6.2-4.1c-1-2.3-0.6-3.9,1.7-4.6c6.3-2,12.8-3.5,19.5-3.1
		c1.8,0.1,3.1,1.2,4.2,2.5c1.9,2.5,1.1,5-1.7,6.3c-1.5,0.7-3.9,0-4.3,1.9c-0.3,1.5,0.7,3.2,1.2,4.8c1.8,5.8,4,11.4,6.5,16.9
		c0.3,0.7,0.6,1.7,1.4,1.8c1,0.1,1-1,1.4-1.6c1.7-2.6,3-5.5,4.2-8.3c2-4.5,4.4-8.9,7.2-12.9c0.7-1,1.2-2.1,1.8-3.1
		c0.9-1.6,0.3-2.5-1.4-2.9c-2.6-0.6-4.4-3.1-4.3-5.7c0.1-1.9,1.5-2.5,3-3c4.6-1.4,9.4-1.9,14.2-2c1,0,2.1,0,3.1,0
		C213.6,17.7,215.5,17.7,216,19.6z"/>
	<path class="st0" d="M262.1,53c-1.9-2-3.7-1-5.6,0.2c-1.2,0.8-2.4,1.5-3.7,2.2c-4.8,2.7-9.8,5-15.3,6c-7,1.4-10.5-0.8-12-7.3
		c-0.6-2.7-0.2-3.4,2.5-4.1c8.7-2.1,17.4-4.1,26-6.2c8.7-2.1,8.7-2.1,8.3-11c0-1.3,0-2.5,0-3.8c0-4.6-1.8-8.3-5.3-11.3
		c-5.7-4.9-11.8-6.7-19.1-3.2c-5.9,2.8-10.5,7-14.3,12c-8.3,11-9.3,25.7-2.7,36.5c2,3.3,4.8,5.5,8.6,6.4c3,0.7,6.1,0.8,9.3,0.6
		c6.1-0.5,11.5-3.2,16.8-5.8c2.2-1.1,4.1-2.7,5.9-4.5C263.4,58,263.6,54.6,262.1,53z M228.2,39.1c4.2-8,9.9-14.4,18.3-18.1
		c2.5-1.1,3.9-0.3,4.9,2.2c0.8,2.1,0.8,4.2,0.8,6c0,1,0,1.8,0,2.5c0.1,2.4-1,3.7-3.4,4.3c-6.5,1.8-13,2.9-19.5,4.5
		c-0.4,0.1-0.9,0.1-1.1-0.1C227.6,40,227.9,39.5,228.2,39.1z"/>
	<path class="st0" d="M312.3,61.8c-4.1,3.9-8.7,6-14.5,6.2c-9,0.2-17.3-2.1-25.4-5.8c-0.5-0.2-1-0.5-1.5-0.8c-1.8-1.2-3.1-2.7-2.2-5
		c0.8-2.3,2.9-2.4,4.8-2.3c2.7,0.2,5.3,1,7.9,2c5.3,2,10.9,2.1,16.5,2.1c0.2,0,0.5,0,0.7-0.1c1.2-0.5,3-0.3,3.4-1.8
		c0.4-1.7-1.2-2.4-2.4-3.2c-5.8-4.2-12.6-6-19.1-8.7c-4.7-1.9-8-5.1-9-10.3c-0.7-4.3,1-7.9,3.4-11.1c3.5-4.8,8.3-8.1,13.3-11.1
		c5.2-3,10.2-1.1,15.1,1c0.5,0.2,1,0.5,1.5,0.8c1.1,0.7,1.7,0.6,2.2-0.9c1.2-3.5,3.7-3.9,6.1-1c1.2,1.4,1.9,2.9,1.8,4.8
		c0,1.9,0,3.8,0,5c0.4,5.1,0.4,9.5-1.8,13.5c-0.7,1.3-1.2,2.6-3,2.6c-1.9,0.1-2.9-0.9-3.7-2.4c-1-1.8-1.5-3.6-1.5-5.7
		c0.1-2.4,0.1-4.8,0.1-7.2c-0.1-3-1.6-4.2-4.5-3.5c-3.1,0.8-5.9,2.5-8.5,4.2c-3,2-5.6,4.4-7.9,7.2c-1.6,1.9-1.5,3.3,0.7,4.5
		c2.3,1.2,4.8,2.2,7.2,3.2c6.2,2.7,12.6,5,18.4,8.6c0.2,0.1,0.4,0.2,0.6,0.3C316.9,50.9,317.5,56.8,312.3,61.8z"/>
	<path class="st1" d="M78.4,78.7c-5.1,2-10.4,3.6-15.9,4.2c-3.6,0.4-8.2-2.1-9.6-5.5c-0.6-1.4-0.2-2.5,1.1-3.3
		c1.4-0.8,2.9-1.4,4.5-1.6c1.9-0.2,2.7-1.3,2.5-3.1c-0.5-4.7-1-9.3-1.1-14c0-1-0.5-1.4-1.5-1.3c-9.9,0.6-19.6,2.4-29,5.8
		c-4.3,1.5-4.5,2.1-4.4,6.7c0,0.5,0,1,0,1.4c0,0-0.1,0-0.1,0c0.2,2.1,0.4,4.1,0.4,6.2c0,2.4,1.2,3.4,3.4,3.2c2.3-0.2,4,0.9,5.5,2.3
		c2.3,2.2,2,4.5-0.7,6.3c-3.6,2.3-7.7,3-11.8,3.7c-1.9,0.3-3.8,0.7-5.7,0.9c-3.7,0.5-6.6-0.9-8.7-3.9c-1.3-1.9-1.1-3.1,0.8-4.4
		c1.4-1,3-1.6,4.6-2.1c1.2-0.4,1.5-1.1,1.4-2.4c-2-13-2.4-26.1-3.3-39.2c-0.3-4.1-0.4-8.3-0.5-12.4C10.4,24,10,22.3,7,22.1
		c-2.7-0.2-5-1.5-6.4-4c-1.2-2.2-0.7-4,1.5-5.2c1.2-0.7,2.4-1.3,3.7-1.6c5.6-1.4,11.3-3,17-3.7c4-0.5,8.4,2.5,8.9,5.9
		c0.3,2-0.2,3.5-2.2,4.2c-0.5,0.2-0.9,0.4-1.3,0.5c-5.8,2.2-4.7,1.1-4.7,6.8c0,6.9,0.2,13.8,0.5,20.8c0.1,3.5,0.6,3.9,4.1,3.1
		c9.6-2.3,19.2-4.5,29.1-5.3c2.1-0.2,2.8-1.6,2.7-3.5c-0.3-5.6-0.6-11.3-0.8-16.9C59,21.3,59,19.7,59,18c0-2-0.8-3-2.9-3.2
		c-3.6-0.4-6.5-2-7.7-5.8c-0.5-1.8-0.1-3.1,1.6-4c7.3-3.7,15-5.2,23.1-5c1.4,0,2.4,0.8,3.1,2c0.5,1,1,2,1.4,3
		c1.2,2.9,1.1,3.5-1.9,4.7c-4.2,1.7-5.5,4.6-5.1,8.8c0.5,6.2,0.7,12.4,0.9,18.6c0.4,9.5,0.7,18.9,1.1,28.4c0.2,3.8,0.2,3.8,4,3.9
		c1.9,0.1,4.5,3,4.9,5.3C81.7,77.2,80.2,78,78.4,78.7z"/>
	<path class="st1" d="M146.1,38.9c-2.3,0.5-3.7,1.7-4.8,3.8c-5.4,10.2-9.5,21-13.9,31.7c-2.3,5.6-1.3,11.1-0.7,16.7
		c0,0.1,0,0.2,0,0.2c0.5,1.4-0.3,3.2,0.9,4.3c1.2,1.1,2.7-0.1,4.1-0.1c2.7,0.1,5.8,2.4,6.4,4.9c0.5,1.8-0.9,2.6-2.1,3.3
		c-4.2,2.5-8.9,3.8-13.7,4.7c-1.8,0.4-3.6,0.6-5.4,0.9c-3.1,0.5-7.9-1.7-9.5-4.4c-0.6-1-0.3-1.8,0.5-2.6c1.4-1.5,3.2-2.3,5.2-2.8
		c2-0.5,2.9-1.5,2.6-3.8c-0.7-4.1-1.1-8.2-1.5-12.3c-0.2-1.9-1.3-3.4-2.4-4.9C106.9,72,101.2,66,96.3,59.5c-2.1-2.8-4.1-5.7-6-8.6
		c-1.8-2.6-4.1-4.1-7.4-4.1c-2,0-4.4-2.5-5.1-5c-0.7-2.5,0.9-3.7,2.6-4.8c3.4-2.1,7.3-2.2,11-2.9c1.8-0.3,3.6-0.5,5.5-0.7
		c3.7-0.5,6.5,1.3,7.1,4.7c0.6,2.9-1.3,5.6-5,6.9c5.8,7.1,11.4,14.1,17,21c1.1,1.4,2.2,1.6,3-0.3c3.1-7.1,6.2-14.1,9.3-21.2
		c0.6-1.4,1-2.5-1.5-2.1c-2.3,0.4-4.8-2.1-5.4-4.9c-0.5-2.4,1.1-3.5,2.9-4.3c6.5-2.9,13.4-4.7,20.5-5.3c3.3-0.3,5,1.5,5.3,4.8
		C150.5,36.5,149.4,38.2,146.1,38.9z"/>
	<path class="st1" d="M312.3,61.8c-4.1,3.9-8.7,6-14.5,6.2c-9,0.2-17.3-2.1-25.4-5.8c-0.5-0.2-1-0.5-1.5-0.8c-1.8-1.2-3.1-2.7-2.2-5
		c0.8-2.3,2.9-2.4,4.8-2.3c2.7,0.2,5.3,1,7.9,2c5.3,2,10.9,2.1,16.5,2.1c0.2,0,0.5,0,0.7-0.1c1.2-0.5,3-0.3,3.4-1.8
		c0.4-1.7-1.2-2.4-2.4-3.2c-5.8-4.2-12.6-6-19.1-8.7c-4.7-1.9-8-5.1-9-10.3c-0.7-4.3,1-7.9,3.4-11.1c3.5-4.8,8.3-8.1,13.3-11.1
		c5.2-3,10.2-1.1,15.1,1c0.5,0.2,1,0.5,1.5,0.8c1.1,0.7,1.7,0.6,2.2-0.9c1.2-3.5,3.7-3.9,6.1-1c1.2,1.4,1.9,2.9,1.8,4.8
		c0,1.9,0,3.8,0,5c0.4,5.1,0.4,9.5-1.8,13.5c-0.7,1.3-1.2,2.6-3,2.6c-1.9,0.1-2.9-0.9-3.7-2.4c-1-1.8-1.5-3.6-1.5-5.7
		c0.1-2.4,0.1-4.8,0.1-7.2c-0.1-3-1.6-4.2-4.5-3.5c-3.1,0.8-5.9,2.5-8.5,4.2c-3,2-5.6,4.4-7.9,7.2c-1.6,1.9-1.5,3.3,0.7,4.5
		c2.3,1.2,4.8,2.2,7.2,3.2c6.2,2.7,12.6,5,18.4,8.6c0.2,0.1,0.4,0.2,0.6,0.3C316.9,50.9,317.5,56.8,312.3,61.8z"/>
	<path class="st1" d="M262.1,53c-1.9-2-3.7-1-5.6,0.2c-1.2,0.8-2.4,1.5-3.7,2.2c-4.8,2.7-9.8,5-15.3,6c-7,1.4-10.5-0.8-12-7.3
		c-0.6-2.7-0.2-3.4,2.5-4.1c8.7-2.1,17.4-4.1,26-6.2c8.7-2.1,8.7-2.1,8.3-11c0-1.3,0-2.5,0-3.8c0-4.6-1.8-8.3-5.3-11.3
		c-5.7-4.9-11.8-6.7-19.1-3.2c-5.9,2.8-10.5,7-14.3,12c-8.3,11-9.3,25.7-2.7,36.5c2,3.3,4.8,5.5,8.6,6.4c3,0.7,6.1,0.8,9.3,0.6
		c6.1-0.5,11.5-3.2,16.8-5.8c2.2-1.1,4.1-2.7,5.9-4.5C263.4,58,263.6,54.6,262.1,53z M228.2,39.1c4.2-8,9.9-14.4,18.3-18.1
		c2.5-1.1,3.9-0.3,4.9,2.2c0.8,2.1,0.8,4.2,0.8,6c0,1,0,1.8,0,2.5c0.1,2.4-1,3.7-3.4,4.3c-6.5,1.8-13,2.9-19.5,4.5
		c-0.4,0.1-0.9,0.1-1.1-0.1C227.6,40,227.9,39.5,228.2,39.1z"/>
	<path class="st1" d="M214.7,25.1c-1.1,1-2.4,1.7-3.8,2c-2.8,0.7-4.5,2.5-5.6,5.1c-4.9,11.6-10.6,22.8-14.8,34.7
		c-1.2,3.4-3.4,5-6.8,5.3c-3.5,0.3-5.5-1.7-7.1-4.3c-3-5.3-5.4-11-7.8-16.6c-1.9-4.5-3.9-9.1-5.1-13.9c-0.4-1.6-1.2-2.6-3.1-2.7
		c-2.8-0.1-5-1.3-6.2-4.1c-1-2.3-0.6-3.9,1.7-4.6c6.3-2,12.8-3.5,19.5-3.1c1.8,0.1,3.1,1.2,4.2,2.5c1.9,2.5,1.1,5-1.7,6.3
		c-1.5,0.7-3.9,0-4.3,1.9c-0.3,1.5,0.7,3.2,1.2,4.8c1.8,5.8,4,11.4,6.5,16.9c0.3,0.7,0.6,1.7,1.4,1.8c1,0.1,1-1,1.4-1.6
		c1.7-2.6,3-5.5,4.2-8.3c2-4.5,4.4-8.9,7.2-12.9c0.7-1,1.2-2.1,1.8-3.1c0.9-1.6,0.3-2.5-1.4-2.9c-2.6-0.6-4.4-3.1-4.3-5.7
		c0.1-1.9,1.5-2.5,3-3c4.6-1.4,9.4-1.9,14.2-2c1,0,2.1,0,3.1,0c1.6,0,3.5,0,4,1.9C216.5,21.5,216.4,23.5,214.7,25.1z"/>
</g>
</svg>
